PathFileType	4	(X/Y/Z)	C:/Users/beibeiliu/ov580/test_trc/User3\out1_training_dense_right.trc
DataRate	CameraRate	NumFrames	NumMarkers	Units	OrigDataRate	OrigDataStartFrame	OrigNumFrames
120	120	8	19	mm	120	251	500
Frame#	Time	ThumbCMC			ThumbMCP			ThumbIP			ThumbTip			IndexMCP			IndexPIP			IndexTip			MiddleMCP			MiddlePIP			MiddleTip			RingMCP			RingPIP			RingTip			PinkyMCP			PinkyPIP			PinkyTip			BackHand1			BackHand2			BackHand3	
		X0	Y0	Z0	X1	Y1	Z1	X2	Y2	Z2	X3	Y3	Z3	X4	Y4	Z4	X5	Y5	Z5	X6	Y6	Z6	X7	Y7	Z7	X8	Y8	Z8	X9	Y9	Z9	X10	Y10	Z10	X11	Y11	Z11	X12	Y12	Z12	X13	Y13	Z13	X14	Y14	Z14	X15	Y15	Z15	X16	Y16	Z16	X17	Y17	Z17	X18	Y18	Z18	
250	2.08333	207.861	53.4458	64.7678	197.207	74.6604	36.6875	181.603	79.6373	7.8039	160.811	73.6627	-5.86179	214.306	26.5634	-6.59581	209.061	35.7656	-29.9612	203.223	57.2854	-47.1803	189.828	14.2449	-8.46495	181.754	29.6491	-37.1334	170.342	63.2222	-45.4378	169.101	11.7155	0.196401	161.603	24.8284	-26.1963	152.387	55.5983	-37.0221	151.264	13.2719	11.0104	143.572	23.5978	-12.2238	138.265	44.4786	-25.9693	177.934	0.436385	54.8922	175.074	2.92611	81.6155	207.11	13.1366	63.5475	
251	2.09167	209.362	53.3031	67.1774	195.737	71.1862	39.186	180.245	77.2326	12.5388	158.992	71.4208	-6.81323	214.651	24.988	-0.557763	212.527	38.5478	-31.1811	199.46	60.6128	-48.2385	193.534	11.7195	-6.77119	185.12	25.5552	-37.5879	176.048	56.1535	-50.95	173.037	10.7541	-0.667328	162.825	20.8692	-26.9163	156.532	50.3781	-39.3918	149.701	14.0003	10.7028	145.078	28.6011	-10.4745	140.53	50.0005	-24.7007	177.902	-1.11478	52.289	170.865	1.44902	81.4354	205.652	12.2547	64.6087	
252	2.1	208.012	52.2444	68.8315	195.974	69.9676	36.1872	178.71	74.8086	11.6197	158.859	69.3855	-0.461968	209.73	21.9867	-0.428945	208.447	37.2617	-30.0597	201.245	62.2196	-46.2255	192.609	9.89765	-6.47369	185.554	19.6472	-35.0976	176.057	54.7988	-52.1292	173.599	9.62287	0.657599	165.113	18.419	-26.6355	157.844	47.0541	-40.9025	154.63	16.057	11.2515	143.602	29.5072	-8.37367	138.019	52.9731	-19.2679	175.166	-2.91615	54.515	170.766	-0.921139	83.7915	204.182	9.43474	66.8965	
253	2.10833	207.719	50.3653	67.2952	194.411	68.5177	41.2924	176.842	73.3069	9.23665	157.06	68.6861	-4.84293	212.809	23.2201	-0.943621	209.039	37.4094	-28.9392	201.779	59.3085	-42.7248	194.412	9.19947	-5.46119	185.595	19.106	-37.5507	177.817	49.6141	-55.2637	171.882	7.17652	0.114487	167.187	17.165	-24.9242	159.095	43.7548	-41.5282	150.401	15.4761	12.5746	145.363	28.846	-6.43978	138.836	53.9008	-17.3112	174.493	-1.4541	53.3758	174.997	-2.0028	84.317	204.03	8.0035	68.2782	
254	2.11667	205.278	49.0623	70.8919	192.142	66.5028	40.6002	176.555	70.3831	13.658	155.653	62.781	-0.445979	209.122	22.1547	-3.68681	205.661	35.664	-26.7845	199.239	63.7199	-43.9451	194.154	7.66093	-4.23195	187.699	16.8191	-36.5594	175.996	46.367	-56.6922	172.757	6.68244	0.505614	167.474	16.5684	-26.9732	158.171	43.0046	-42.3773	148.715	13.5907	12.0991	147.474	32.8072	-7.74229	141.259	54.9435	-13.2415	173.25	-4.26552	56.6837	176.065	-2.6989	82.4924	206.141	8.93072	69.6512	
255	2.125	206.836	49.95	72.2891	193.098	66.7789	37.882	176.738	73.6012	11.2612	155.255	66.4714	-4.74151	211.219	21.7302	0.695848	208.039	36.1421	-28.5891	198	61.6918	-44.684	193.174	6.14982	-6.03463	187.414	14.662	-35.3932	178.258	39.4086	-55.6893	172.295	6.69902	3.50267	164.483	17.5643	-28.1397	157.632	40.6839	-40.5795	148.274	12.4273	12.8538	143.527	30.5716	-5.96545	140.508	53.4529	-12.7539	175.032	-3.79176	53.6297	174.598	-3.30487	86.6928	207.264	9.8408	67.8797	
256	2.13333	205.64	47.2394	67.5988	192.25	66.3489	39.2589	176.619	71.6545	12.7282	158.224	67.5246	-0.129131	208.738	20.9212	-2.00797	208.679	33.5057	-28.0607	198.21	56.7818	-44.5101	190.2	4.51937	-3.45322	185.326	13.722	-35.35	177.47	41.1833	-57.8845	174.033	7.31262	-1.67003	160.741	17.321	-24.5174	154.263	43.2453	-38.2074	148.178	12.2047	10.1959	144.129	31.0052	-6.34514	137.518	51.5646	-12.2653	177.808	-4.62532	54.9649	176.151	-5.12472	83.66	204.083	5.85967	70.1618	
257	2.14167	208.261	48.1675	70.8888	193.125	64.041	41.4178	178.538	73.3079	14.9803	158.884	66.4719	-1.51861	211.888	21.0885	-3.07697	203.616	33.5465	-30.7059	196.709	53.9759	-45.351	193.607	5.26827	-6.42702	186.128	15.3373	-34.3454	173.002	43.1282	-54.9739	171.994	7.72924	-0.273466	159.007	23.1724	-23.786	151.579	50.4893	-30.6663	148.179	11.0403	13.0926	141.251	26.9277	-3.37696	135.308	54.5979	-10.3824	175.976	-6.55389	52.4755	175.252	-7.52697	83.6859	205.033	6.1319	69.8253	
